<svg width="18" height="18" viewBox="0 0 18 18" fill="none" xmlns="http://www.w3.org/2000/svg">
<path d="M10.515 2.83501C9.675 2.37001 8.6025 2.49001 7.5075 3.17251L5.3175 4.54501C5.1675 4.63501 4.995 4.68751 4.8225 4.68751H4.125H3.75C1.935 4.68751 0.9375 5.68501 0.9375 7.50001V10.5C0.9375 12.315 1.935 13.3125 3.75 13.3125H4.125H4.8225C4.995 13.3125 5.1675 13.365 5.3175 13.455L7.5075 14.8275C8.1675 15.24 8.8125 15.4425 9.4125 15.4425C9.8025 15.4425 10.1775 15.3525 10.515 15.165C11.3475 14.7 11.8125 13.7325 11.8125 12.4425V5.55751C11.8125 4.26751 11.3475 3.30001 10.515 2.83501Z" fill="#EFEEE0"/>
<path d="M13 11L15 9.00001M15 9.00001L17 7M15 9.00001L13 7M15 9.00001L17 11" stroke="#EFEEE0" stroke-linecap="round" stroke-linejoin="round"/>
</svg>
